<svg xmlns="http://www.w3.org/2000/svg"  viewBox="0 0 24 24" width="96px" height="96px"><path d="M 10.9375 2.25 C 4.08021 2.25 -0.7424375 8.996025 1.4765625 15.484375 L 2.4101562 18.212891 C 2.9290063 19.729991 4.3556044 20.75 5.9589844 20.75 L 18.9375 20.75 C 21.4607 20.75 23.263784 18.308084 22.521484 15.896484 L 20.494141 9.3066406 C 19.203041 5.1118106 15.3266 2.25 10.9375 2.25 z M 10.9375 3.75 C 13.710324 3.75 16.240684 5.095826 17.808594 7.25 L 12.886719 7.25 C 10.966619 7.25 9.6363469 9.1670138 10.310547 10.964844 L 11.810547 14.964844 C 12.213047 16.038144 13.240419 16.75 14.386719 16.75 L 21.162109 16.75 C 21.310874 18.050095 20.307262 19.25 18.9375 19.25 L 5.9589844 19.25 C 4.9969544 19.25 4.1413881 18.638816 3.8300781 17.728516 L 2.8964844 14.998047 C 1.0103744 9.4830969 5.10896 3.75 10.9375 3.75 z M 13 9.25 L 15 9.25 C 15.4142 9.25 15.75 9.58579 15.75 10 C 15.75 10.4142 15.4142 10.75 15 10.75 L 13 10.75 C 12.5858 10.75 12.25 10.4142 12.25 10 C 12.25 9.58579 12.5858 9.25 13 9.25 z"/></svg>